<?xml version="1.0" encoding="UTF-8"?>
<svg width="128px" height="128px" viewBox="0 0 128 128" version="1.1" xmlns="http://www.w3.org/2000/svg" xmlns:xlink="http://www.w3.org/1999/xlink">
    <!-- Generator: Sketch 53.2 (72643) - https://sketchapp.com -->
    <title>donkey</title>
    <desc>Created with Sketch.</desc>
    <g id="Page-1" stroke="none" stroke-width="1" fill="none" fill-rule="evenodd">
        <g id="broadcast" transform="translate(-28.000000, -60.000000)">
            <g id="Group" transform="translate(28.000000, 12.000000)">
                <g id="donkey" transform="translate(0.000000, 48.000000)">
                    <path d="M87.2023942,30.7780627 C51.2500776,40.8536043 53.3649214,36.0095922 43.9442616,28.8404595 C39.7401113,25.6411907 32.2029829,21.2868332 24.6673573,19.1653064 L24.7184261,19.1524408 C23.1803592,18.6680406 23.1803592,17.0210776 23.1803592,17.0210776 C24.7184261,10.8207452 21.9306792,6.07361585 20.4887413,1.90776667 C19.0468034,-2.2580825 14.1442168,0.16392346 13.5674414,11.4989046 C12.990666,22.8338858 7.70356199,8.20497907 6.35775307,4.13601205 C5.01194415,0.0670450338 2.60871542,3.07032972 2.60871542,3.07032972 C2.60871542,3.07032972 -4.07977241,14.315243 5.49859915,22.7619836 C4.44268007,24.1671253 3.58953334,25.9163131 2.99323211,28.0654165 C2.15435481,31.0898956 3.1945023,35.0257007 2.60871542,38.3347153 C-4.31258521,56.5481896 2.99323211,67.0112485 19.1429331,52.4792232 C19.1429331,52.4792232 23.757134,47.5383338 30.6784339,63.6204449 L117.19469,63.6204449 C117.19469,63.620445 123.154705,20.7025239 87.2023942,30.7780627 Z M45.5784575,59.4470284 L40.1839588,55.4969361 L34.7894574,59.446602 L36.8502267,53.0552545 L31.455728,49.1050691 L38.1239382,49.1050691 L40.1847075,42.7140057 L42.2447281,49.1054463 L48.9129356,49.1054463 L43.5184369,53.0556317 L45.5784575,59.4470284 Z M66.9837201,59.4470284 L61.5884674,55.4969361 L56.1947227,59.446602 L58.255492,53.0552545 L52.8602393,49.1050691 L59.5292008,49.1050691 L61.5899701,42.7140057 L63.6492367,49.1054463 L70.3181982,49.1054463 L64.9229509,53.0556317 L66.9837201,59.4470284 Z M88.3874853,59.4470284 L82.9937353,55.4969361 L77.5984825,59.446602 L79.6592518,53.0552545 L74.2655072,49.1050691 L80.9329659,49.1050691 L82.9937352,42.7140057 L85.054499,49.1054463 L91.7219577,49.1054463 L86.3282186,53.0556317 L88.3874853,59.4470284 Z M109.792748,59.4470284 L104.398249,55.4969361 L99.0037504,59.446602 L101.064514,53.0552545 L95.6700156,49.1050691 L102.338223,49.1050691 L104.398998,42.7140057 L106.459013,49.1054463 L113.127221,49.1054463 L107.732722,53.0556317 L109.792748,59.4470284 Z" id="Shape" fill="#4A90E2" fill-rule="nonzero"></path>
                    <path d="M127.768898,83.4808797 C127.31905,81.5539194 126.176765,79.8963161 124.212116,79.8963161 C124.140773,79.8963161 124.074681,79.9129654 124.004846,79.9175091 C118.56829,74.4165326 117.002438,67.5925342 117.002438,67.5925342 L32.4087581,67.5925342 C33.754567,72.0490207 37.7919938,91.8125727 37.7919938,97.625385 C37.7919938,103.438197 35.8694107,109.832295 35.8694107,111.18861 C35.8694107,112.544936 34.9081179,113.707496 34.9081179,113.707496 C34.9081179,113.707496 31.0629519,119.907828 29.1403663,122.62048 C27.2177832,125.333121 30.2939172,126.108161 30.2939172,126.108161 C30.2939172,126.108161 37.0229591,126.108161 40.2913538,126.108161 C43.5597484,126.108161 43.7520037,125.333121 43.9442617,123.976795 C44.1365197,122.62048 45.290068,121.264154 46.4436216,122.62048 C47.5971698,123.976795 49.135234,122.039194 49.135234,122.039194 C49.135234,122.039194 52.0191099,119.132788 54.7107277,115.838862 C57.4023456,112.544936 54.1339536,111.18861 54.1339536,111.18861 C42.2139338,98.4004251 55.2875016,82.1245594 55.2875016,82.1245594 C63.3623551,84.2559253 71.0526871,81.1557592 74.8978531,80.1869534 C78.7430191,79.2181532 79.8965726,82.1245594 79.8965726,82.1245594 L82.5881905,86.7748114 C87.58691,96.4628247 84.1262547,99.3692308 84.1262547,99.3692308 C84.1262547,99.3692308 76.4359227,111.18861 73.3597887,114.676302 C70.2836547,118.163993 70.668171,119.326554 70.668171,119.326554 C71.0526871,124.945601 81.819153,123.78304 83.3572226,121.45792 C84.8952868,119.132788 87.2023941,114.288782 89.8940064,111.57613 C92.5856188,108.863489 92.0088501,107.313409 92.0088501,107.313409 C92.2972398,100.822434 93.9314304,99.3692306 93.9314304,99.3692306 C102.006279,92.0063379 99.8914348,84.6434453 99.3146661,83.2871195 C98.7378866,81.9307992 99.1224027,81.5432792 100.083698,81.155759 C101.044994,80.7682389 101.621762,82.3183194 101.621762,82.3183194 C107.77403,95.3002643 106.235966,103.244443 106.235966,105.763329 C106.235966,108.282204 104.313386,110.994855 104.313386,113.513741 C104.313386,116.032627 104.313386,116.420147 100.468214,120.489114 C96.6230427,124.55808 98.3533705,127.852007 105.082418,127.852007 C111.811454,127.852007 113.541782,121.45792 114.887594,119.520308 C116.233394,117.582708 116.810174,114.676302 116.810174,114.676302 C116.810174,114.676302 116.617921,109.63853 116.810174,105.375809 C117.002437,101.113077 119.309534,97.0441103 117.771469,93.750184 C116.233394,90.4562577 114.69533,80.574479 114.503077,79.2181532 C114.310814,77.8618329 115.079846,73.405341 117.19469,76.5055071 C118.629119,78.6081128 120.502882,80.2626925 121.561812,81.111148 C121.004564,81.7438521 120.655345,82.5681347 120.655345,83.4808797 C120.655345,83.4808797 120.847598,85.6122511 122.481799,87.3560861 C124.11599,89.0999321 123.8276,90.5531351 123.8276,90.5531351 C123.8276,90.5531351 123.923737,93.362664 125.750191,90.9406553 C127.576645,88.5186466 128.153414,85.1278429 127.768898,83.4808797 Z" id="Path" fill="#D50000"></path>
                </g>
            </g>
        </g>
    </g>
</svg>