<?xml version="1.0" encoding="UTF-8"?>
<svg width="127px" height="110px" viewBox="0 0 127 110" version="1.1" xmlns="http://www.w3.org/2000/svg" xmlns:xlink="http://www.w3.org/1999/xlink">
    <!-- Generator: Sketch 53.2 (72643) - https://sketchapp.com -->
    <title>elephant</title>
    <desc>Created with Sketch.</desc>
    <g id="Page-1" stroke="none" stroke-width="1" fill="none" fill-rule="evenodd">
        <g id="broadcast" transform="translate(-851.000000, -75.000000)">
            <g id="Group" transform="translate(28.000000, 12.000000)">
                <g id="elephant" transform="translate(823.000000, 63.000000)">
                    <path d="M126.732107,87.6641736 L116.170659,87.6641736 L116.170659,95.331726 C116.170659,97.2748347 114.602647,98.850163 112.668228,98.850163 C110.73381,98.850163 109.165049,97.2748347 109.165049,95.331726 L109.165049,51.4285714 L0,51.4285714 L0,109.40591 L26.9780762,109.40591 L26.9780762,87.9797036 L60.8564181,87.9797036 L60.8564181,109.616013 L86.3703233,109.616013 L86.3703233,78.1068311 C86.3703233,76.1638206 87.9390842,74.5880181 89.8727539,74.5880181 C91.8079211,74.5880181 93.3759223,76.1638206 93.3759223,78.1068311 L93.272092,92.8634207 C93.272092,102.173669 100.785569,109.721015 110.053635,109.721015 C119.322461,109.721015 126.836686,102.173669 126.836686,92.8634207 L126.732107,87.6641736 Z" id="Path" fill="#D50000"></path>
                    <path d="M56.2558414,-1.42108547e-14 L53.0190141,-1.42108547e-14 C-4.9090621,-1.42108547e-14 0.109449257,37.3911994 0.109449257,47.473744 L109.166155,47.473744 C109.166155,37.3912007 114.184666,-1.42108547e-14 56.2558414,-1.42108547e-14 Z M26.7722694,32.2566183 L24.2291568,40.1160936 L21.6875472,32.2562423 L13.4600461,32.2562423 L20.1165348,27.3981736 L17.5749251,19.5383196 L24.2306597,24.3959169 L30.886397,19.5386983 L28.3440359,27.3985496 L35.0005218,32.2566183 L26.7722694,32.2566183 Z M56.9284868,32.2566183 L54.3853716,40.1160936 L51.8437646,32.2562423 L43.6155095,32.2562423 L50.2719982,27.3981736 L47.729637,19.5383196 L54.3861257,24.3959169 L61.0426143,19.5386983 L58.4994991,27.3985496 L65.1552337,32.2566183 L56.9284868,32.2566183 Z M87.0832014,32.2566183 L84.5408403,40.1160936 L81.9984737,32.2562423 L73.7717267,32.2562423 L80.4274613,27.3981736 L77.8858543,19.5383196 L84.5415889,24.3959169 L91.1973289,19.5386983 L88.6549678,27.3985496 L95.3114564,32.2566183 L87.0832014,32.2566183 Z" id="Shape" fill="#4A90E2" fill-rule="nonzero"></path>
                </g>
            </g>
        </g>
    </g>
</svg>