<?xml version="1.0" encoding="UTF-8"?>
<svg width="90px" height="60px" viewBox="0 0 90 60" version="1.1" xmlns="http://www.w3.org/2000/svg" xmlns:xlink="http://www.w3.org/1999/xlink">
    <!-- Generator: Sketch 53.2 (72643) - https://sketchapp.com -->
    <title>Group</title>
    <desc>Created with Sketch.</desc>
    <g id="Page-1" stroke="none" stroke-width="1" fill="none" fill-rule="evenodd">
        <g id="broadcast" transform="translate(-498.000000, -1774.000000)" fill="#FFFFFF" fill-rule="nonzero">
            <g id="escape-button" transform="translate(364.000000, 1769.000000)">
                <g id="Group" transform="translate(134.000000, 5.000000)">
                    <path d="M25.343,7.246 C25.343,4.243 22.908,1.808 19.905,1.808 C16.902,1.808 14.467,4.243 14.467,7.246 C14.467,7.717 14.533,8.171 14.647,8.607 L13.752,9.277 L13.409,7.674 L10.089,9.62 L10.662,10.879 L9.22,11.521 C8.765,11.645 8.428,12.058 8.428,12.552 C8.428,13.145 8.909,13.625 9.502,13.625 C9.672,13.625 9.831,13.582 9.975,13.512 L9.975,13.512 L11.921,12.597 L12.608,14.429 L16.272,12.025 L14.783,10.537 L15.308,10.143 C16.272,11.669 17.968,12.686 19.906,12.686 C22.908,12.685 25.343,10.25 25.343,7.246 Z M0.873,34.317 C0.873,35.237 1.425,36.026 2.214,36.379 C2.221,36.394 2.225,36.414 2.239,36.42 C2.582,36.533 11.376,39.356 13.895,40.042 C16.413,40.729 18.016,37.296 18.016,37.296 C18.016,37.296 19.161,35.35 19.733,34.319 C20.306,33.289 21.45,34.089 21.794,34.548 C22.137,35.006 22.939,37.409 23.74,38.669 C24.541,39.928 24.312,41.646 24.083,43.706 C23.854,45.766 23.511,49.43 23.511,51.49 C23.511,52.08 23.532,52.527 23.562,52.874 C23.554,52.947 23.539,53.018 23.539,53.092 C23.539,54.403 24.601,55.467 25.915,55.467 C27.117,55.467 28.103,54.569 28.257,53.406 C28.266,53.378 28.286,53.352 28.288,53.321 C28.375,52.291 29.233,40.386 28.776,39.242 C28.318,38.096 26.601,34.205 26.601,34.205 L27.975,34.205 C27.975,34.205 27.059,31.343 26.259,29.855 C25.457,28.367 24.313,25.733 24.885,25.39 C25.457,25.046 25.915,21.383 26.487,21.155 C27.059,20.926 28.777,22.185 30.379,23.329 C31.982,24.474 33.356,23.903 33.813,23.673 C34.251,23.454 36.501,21.798 37.801,20.352 C38.229,19.995 38.507,19.464 38.507,18.863 C38.507,17.789 37.636,16.918 36.561,16.918 C35.967,16.918 35.443,17.189 35.086,17.608 C34.441,18.266 33.625,19.513 33.013,20.125 C32.096,21.042 31.41,20.011 29.693,19.095 C27.976,18.179 25.916,16.691 24.542,15.889 C23.168,15.087 22.481,14.286 19.505,14.286 C19.505,14.286 13.667,15.202 10.919,16.232 C8.172,17.263 8.172,18.522 7.027,20.926 C6.796,21.414 6.689,21.764 6.661,22.023 C6.616,22.204 6.583,22.39 6.583,22.585 C6.583,23.844 7.605,24.866 8.865,24.866 C9.448,24.866 9.976,24.64 10.38,24.279 C10.58,24.169 10.756,23.949 10.901,23.594 C11.005,23.388 11.076,23.166 11.112,22.93 C11.86,20.193 12.266,19.45 14.811,19.782 C14.811,20.355 15.956,23.216 16.414,24.475 C16.872,25.734 16.758,26.307 15.956,27.565 C15.155,28.824 12.637,33.404 12.637,33.404 C12.637,33.404 12.637,33.404 14.011,33.633 C14.011,34.664 13.553,35.464 12.523,35.121 C11.659,34.832 5.978,32.926 4.17,32.317 C3.858,32.157 3.511,32.057 3.136,32.057 C1.885,32.057 0.873,33.069 0.873,34.317 Z M11.375,27.221 L3.591,24.818 L0.042,29.053 L11.261,32.944 L11.375,27.221 Z" id="Shape"></path>
                    <path d="M74.061,12.31 C77.273,12.31 79.875,9.707 79.875,6.495 C79.875,3.283 77.272,0.679 74.061,0.679 C70.848,0.679 68.244,3.283 68.244,6.495 C68.244,9.707 70.848,12.31 74.061,12.31 Z M87.146,15.314 C86.896,15.314 86.656,15.35 86.426,15.411 C84.937,15.612 81.516,16.082 79.874,16.381 C77.742,16.769 76.578,16.962 75.608,16.381 C74.754,15.869 69.83,12.643 68.678,11.888 C68.66,11.876 68.645,11.865 68.628,11.854 C68.505,11.774 68.436,11.728 68.436,11.728 C68.087,11.514 67.719,11.364 67.339,11.265 C65.783,10.749 63.912,10.795 61.929,11.499 C59.205,12.463 46.78,14.13 43.974,15.136 C42.885,15.363 41.988,16.225 41.778,17.386 C41.502,18.916 42.517,20.378 44.045,20.654 C44.464,20.73 44.877,20.705 45.264,20.603 C46.617,20.399 53.278,19.572 57.526,19.004 C54.097,24.506 49.006,33.087 48.272,34.411 C47.304,36.156 47.5,36.347 44.784,35.379 C42.463,34.551 37.612,32.257 35.892,31.671 C35.529,31.502 35.127,31.404 34.701,31.404 C33.149,31.404 31.89,32.662 31.89,34.216 C31.89,35.396 32.618,36.404 33.649,36.82 C36.233,38.309 42.274,41.119 44.782,42.552 C47.496,44.103 50.017,44.295 51.375,42.358 C52.732,40.42 55.639,35.96 55.639,35.96 C55.639,35.96 57.965,41.97 57.383,42.939 C56.85,43.83 52.624,53.261 52.091,55.39 C51.943,55.734 51.859,56.112 51.859,56.51 C51.859,58.062 53.119,59.321 54.671,59.321 C55.697,59.321 56.593,58.768 57.084,57.948 C58.032,56.847 58.807,55.156 60.1,52.827 C62.038,49.337 63.395,47.01 64.171,45.459 C64.946,43.91 65.528,44.492 64.171,40.033 C62.813,35.573 61.261,33.635 62.813,31.114 C64.365,28.593 66.692,25.492 66.692,25.492 L71.343,20.258 C71.343,20.258 74.059,22.779 78.129,22.196 C81.382,21.731 85.181,21.362 87.17,20.934 C88.711,20.92 89.955,19.668 89.955,18.124 C89.957,16.573 88.698,15.314 87.146,15.314 Z" id="Shape"></path>
                </g>
            </g>
        </g>
    </g>
</svg>