<?xml version="1.0" encoding="UTF-8"?>
<svg width="177px" height="176px" viewBox="0 0 177 176" version="1.1" xmlns="http://www.w3.org/2000/svg" xmlns:xlink="http://www.w3.org/1999/xlink">
    <!-- Generator: Sketch 53.2 (72643) - https://sketchapp.com -->
    <title>tv</title>
    <desc>Created with Sketch.</desc>
    <g id="Page-1" stroke="none" stroke-width="1" fill="none" fill-rule="evenodd">
        <g id="broadcast" transform="translate(-412.000000, -12.000000)">
            <g id="Group" transform="translate(28.000000, 12.000000)">
                <g id="tv" transform="translate(384.000000, 0.000000)">
                    <path d="M177,55.8380952 L102.47185,55.8380952 C102.018898,53.6380952 101.043307,51.6825397 99.7192913,49.9714286 L130.729134,8.9047619 L126.164764,5.44761905 L95.3639764,46.2349206 C93.3082677,45.0825397 90.9738189,44.384127 88.4651575,44.384127 C86.0610236,44.384127 83.8311024,45.047619 81.8450787,46.0952381 L53.8316929,0 L48.9537402,2.96825397 L77.4200787,49.7968254 C76.026378,51.5428571 74.9811024,53.568254 74.5281496,55.8380952 L0,55.8380952 L0,170.273016 L11.4283465,170.273016 L11.4283465,176 L17.1425197,176 L17.1425197,170.273016 L159.892323,170.273016 L159.892323,176 L165.606496,176 L165.606496,170.273016 L177,170.273016 L177,55.8380952 Z M88.5,50.1111111 C92.2281496,50.1111111 95.3639764,52.5206349 96.548622,55.8380952 L80.4862205,55.8380952 C81.6360236,52.5206349 84.7718504,50.1111111 88.5,50.1111111 Z M171.285827,164.580952 L5.71417323,164.580952 L5.71417323,61.5650794 L171.285827,61.5650794 L171.285827,164.580952 Z" id="Shape" fill="#000000" fill-rule="nonzero"></path>
                    <path d="M25.3261231,159 L122.673877,159 C130.570715,159 137,152.54386 137,144.614035 L137,81.3859649 C137,73.4561404 130.570715,67 122.673877,67 L25.3261231,67 C17.4292845,67 11,73.4561404 11,81.3859649 L11,144.649123 C11.0349418,152.54386 17.4642263,159 25.3261231,159 Z M16.765391,81.3859649 C16.765391,76.6140351 20.608985,72.754386 25.3610649,72.754386 L122.708819,72.754386 C127.460899,72.754386 131.304493,76.6140351 131.304493,81.3859649 L131.304493,144.649123 C131.304493,149.421053 127.460899,153.280702 122.708819,153.280702 L25.3261231,153.280702 C20.5740433,153.280702 16.7304493,149.421053 16.7304493,144.649123 L16.7304493,81.3859649 L16.765391,81.3859649 Z" id="Shape" fill="#000000" fill-rule="nonzero"></path>
                    <path d="M155,89 C161.070122,89 166,84.070122 166,78 C166,71.929878 161.070122,67 155,67 C148.929878,67 144,71.929878 144,78 C144,84.070122 148.929878,89 155,89 Z M155,72.5335366 C158.018293,72.5335366 160.5,74.9817073 160.5,78.0335366 C160.5,81.0518293 158.018293,83.5335366 155,83.5335366 C151.981707,83.5335366 149.5,81.0853659 149.5,78.0335366 C149.5,74.9817073 151.948171,72.5335366 155,72.5335366 Z" id="Shape" fill="#000000" fill-rule="nonzero"></path>
                    <path d="M155,120 C161.070122,120 166,115.070122 166,109 C166,102.929878 161.070122,98 155,98 C148.929878,98 144,102.929878 144,109 C144,115.070122 148.929878,120 155,120 Z M155,103.5 C158.018293,103.5 160.5,105.948171 160.5,109 C160.5,112.018293 158.018293,114.5 155,114.5 C151.981707,114.5 149.5,112.051829 149.5,109 C149.5,105.948171 151.948171,103.5 155,103.5 Z" id="Shape" fill="#000000" fill-rule="nonzero"></path>
                    <rect id="Rectangle" fill="#000000" x="141" y="129" width="7" height="7"></rect>
                    <rect id="Rectangle" fill="#000000" x="157" y="129" width="7" height="7"></rect>
                    <rect id="Rectangle" fill="#000000" x="141" y="145" width="7" height="7"></rect>
                    <rect id="Rectangle" fill="#000000" x="157" y="145" width="7" height="7"></rect>
                    <path d="M69.708388,125.438461 C69.6001748,126.322712 69.3856663,127.190806 69.0694761,128.024073 C68.8889971,128.500017 68.7500182,128.990563 68.6540808,129.490269 C68.3639297,130.862819 67.851095,132.179084 67.1357495,133.387287 C67.0055712,133.558023 66.9208253,133.758758 66.8893831,133.970848 C66.7182403,134.760478 66.6111653,135.562544 66.5691948,136.369282 C66.6209835,136.670385 66.5251822,136.978008 66.3114036,137.197063 C66.2047328,137.328522 66.1282422,137.481642 66.0873011,137.645675 C65.8247479,138.385742 65.1869356,138.930948 64.4126839,139.07715 C64.1347896,139.173518 63.8438999,139.227619 63.5498159,139.237629 C63.1686237,139.22312 62.7905089,139.310787 62.4549358,139.491478 C61.9338013,139.799413 61.3286672,139.936393 60.7250986,139.883047 C60.3082386,140.138647 60.0085563,139.939944 59.7437345,139.626864 C59.5729479,139.425098 59.4027471,139.49673 59.181574,139.555378 C58.8064586,139.655021 58.735859,139.567195 58.5539404,139.293797 C58.2958589,138.796146 58.2362625,138.219698 58.3871086,137.680106 C58.6979227,137.389346 58.3743655,137.045629 58.4675218,136.722191 C58.5471626,136.391256 58.58165,136.051138 58.5700524,135.711026 C58.5798172,134.122282 58.5798172,132.533538 58.5700524,130.944794 C58.6246451,130.517842 58.5616088,130.084141 58.3876944,129.690139 C58.1624201,129.299882 58.6110646,128.969879 58.5439803,128.582686 C58.4875885,128.257351 58.2258426,127.964987 58.4062964,127.600408 C58.4859416,127.450217 58.5384929,127.287264 58.561557,127.11897 C58.6043269,126.693846 58.6021298,126.264346 58.6479756,125.839659 C58.6875231,125.473037 58.7997209,125.112689 58.8237423,124.745483 C58.8151239,124.148296 58.8967432,123.553215 59.065861,122.980212 C59.1171675,122.727435 59.1235134,122.467647 59.0846094,122.212684 C59.0825588,122.085176 59.0441831,121.932575 58.8842354,121.972257 C58.074396,122.08007 57.2568514,122.119455 56.4403459,122.08999 C55.96861,122.072067 55.4972784,122.134783 55.0468089,122.275417 C54.7122493,122.350643 54.3679919,122.373676 54.0263368,122.343693 C53.2983657,122.271072 52.5631777,122.348341 51.866457,122.570698 C51.0959672,122.58062 50.329008,122.676335 49.5798788,122.856059 C48.7426434,123.00195 47.8954479,123.087441 47.0678797,123.294459 C46.7287605,123.343117 46.3869011,123.370453 46.0443316,123.376304 C45.2880954,123.464567 44.9118082,122.891657 44.4537895,122.473681 C44.3138954,122.162516 44.3060261,121.808281 44.4319651,121.491257 C44.4881203,121.42949 44.562114,121.386575 44.643764,121.368417 C45.3531609,121.215406 46.0720407,121.109838 46.7955878,121.052419 C47.725833,121.005297 48.6480223,120.800029 49.5735805,120.662892 L50.2060476,120.569669 C50.2904646,120.550396 50.3778716,120.547918 50.4632529,120.562374 C50.9968513,120.717747 51.4251361,120.194001 51.9688411,120.351709 C52.4668468,120.49614 52.9554782,120.240249 53.455095,120.245938 L53.5539638,120.166574 L53.4679846,120.08473 L53.3552009,120.038191 C52.2776046,120.040233 51.2000083,120.03892 50.1225584,120.05526 C49.9102349,120.065088 49.7005939,120.106594 49.5006373,120.178391 C49.1726972,120.282997 48.8201094,120.282742 48.4923223,120.177662 C48.2040586,120.104556 47.9094266,120.059123 47.6124635,120.041984 C46.8379183,119.976625 46.5546409,119.731676 46.41476,118.982384 C46.3841473,118.816506 46.3320031,118.653839 46.306517,118.487086 C46.2961174,118.418518 46.3095929,118.29422 46.3473827,118.278318 C46.8146292,118.081366 47.2153773,117.700155 47.7668453,117.733564 C48.322579,117.738688 48.8754827,117.654196 49.4041121,117.483362 C50.388845,117.225282 51.4065342,117.116886 52.4086973,116.937003 C53.4108604,116.757121 54.405407,116.517861 55.4094742,116.338854 C56.3619382,116.104158 57.3352194,115.963087 58.3153372,115.917669 C58.7458348,115.91481 59.1666847,115.790362 59.5290062,115.558779 C59.9253236,115.358665 60.1621401,114.940993 60.1295424,114.499616 C60.1121122,114.114175 60.1657211,113.724356 60.1333507,113.341102 C60.081646,112.730406 60.4580797,112.203159 60.3996372,111.577582 C60.3894821,110.980372 60.4159943,110.383102 60.4790252,109.789115 C60.4300995,109.251087 60.4614926,108.708807 60.5721816,108.179946 C60.6791427,107.589166 60.7024632,106.986371 60.6414629,106.389144 C60.6495189,105.831114 60.6571355,105.272938 60.6547919,104.714909 C60.6536201,104.449972 60.5241387,104.309626 60.2645898,104.318233 C59.5799094,104.257063 58.8897746,104.311317 58.2232061,104.478712 C57.9752095,104.545257 57.7175475,104.5687 57.4615504,104.54801 C54.228322,104.557444 50.9952401,104.562453 47.7623046,104.563037 C47.3321555,104.597938 46.8996016,104.536988 46.496052,104.384613 C46.2505866,104.300818 45.9876662,104.281029 45.7323457,104.327132 C45.0074516,104.278233 44.2878099,104.170154 43.5806684,104.003986 C43.2656066,103.989251 42.9726621,103.700096 42.6504232,103.589804 C42.2172305,103.470512 41.942186,103.047235 42.0103395,102.604753 C42.0197137,102.343172 42.0062382,102.104496 42.3179312,101.973778 C42.5744041,101.866549 42.2640294,101.610074 42.4194364,101.419395 C42.6064815,101.192974 42.4178252,101.046062 42.216133,100.927016 L42.1773178,100.726125 C42.2137268,100.648756 42.2758037,100.586256 42.3530845,100.549161 C42.6209407,100.417044 42.8977687,100.303799 43.1815315,100.210258 C44.5950536,99.7438293 46.0442797,99.3925377 47.514913,99.1598485 C48.1435719,99.0817972 48.7553865,98.8756544 49.3789188,98.747417 C49.632529,98.7097387 49.8880148,98.6858745 50.1442363,98.6759308 C50.7026798,98.7069304 51.261981,98.6326863 51.7927815,98.4570955 C52.0002884,98.3980905 52.2173204,98.3797584 52.4318399,98.4031162 C53.1183884,98.4494429 53.8077964,98.3765307 54.4692689,98.1876364 C54.7640905,98.1237629 55.0670249,98.1054583 55.3674367,98.1333652 C55.7969559,98.1541088 56.2267466,98.0983815 56.6366187,97.9688011 C56.9281501,97.8983757 57.2286166,97.8717726 57.5280488,97.8898746 C58.127515,97.9000844 58.7256403,97.8300137 59.3063684,97.6815434 C59.7724503,97.6005444 60.2470528,97.5795587 60.7185073,97.6191024 C61.2702683,97.5875901 61.5047704,97.2378914 61.4097099,96.6270492 C61.385249,96.4694879 61.1844355,96.2964621 61.041918,96.3513168 C60.2498036,96.5306517 59.4396282,96.6187633 58.627323,96.6139191 C57.8643491,96.7258169 57.1002034,96.7812551 56.3408913,96.8765214 C55.6178042,96.9105221 54.9050643,97.0612937 54.2305191,97.3229453 C53.4607575,97.3531383 52.6958276,97.4584894 51.9467238,97.6374846 C51.1850681,97.7044481 50.4380597,97.8697417 49.6601455,97.8777657 C49.062931,97.8616594 48.4717098,97.7546007 47.9070192,97.5603087 C47.7623046,97.5178546 47.6564052,97.3467254 47.5326361,97.2345359 L47.8548751,97.0440033 C48.2882002,96.7624442 48.7891646,96.6012738 49.3059757,96.5771548 C49.4757186,96.565962 49.641247,96.5196014 49.7919706,96.4410393 C50.2061334,96.2126469 50.6688527,96.0855385 51.1420053,96.0701865 C51.3122301,96.0563806 51.4776977,96.0073897 51.6278537,95.9263387 C52.4837547,95.670937 53.3544223,95.4674842 54.2350597,95.3171014 C54.9327071,95.1297784 55.6652148,95.0937435 56.3552455,94.8627994 C56.4338397,94.8286538 56.5185087,94.8105471 56.6042484,94.8095495 C57.4608103,94.8150108 58.315045,94.7201139 59.1493501,94.5268143 C59.9022101,94.3729169 60.6654535,94.2746113 61.4328525,94.2326998 C61.6974102,94.1841958 61.894322,93.961727 61.9094732,93.6942191 C61.8979019,92.7510392 62.195387,91.8491462 62.2305403,90.9024648 C62.2725779,89.7712325 62.4426322,88.6424802 62.4859879,87.5032239 C62.559843,86.8281993 62.6787982,86.1588298 62.842062,85.4995683 C62.864129,85.3400005 62.8670301,85.1783822 62.8507038,85.0181307 C62.836496,84.8095078 62.7115552,84.5489479 62.7966556,84.4084557 C62.9772559,84.1101103 63.3424112,84.1783869 63.6237844,84.2427245 C64.5456326,84.44961 65.384409,84.9260843 66.0325205,85.6110284 C66.3125168,85.9328698 66.4633143,86.3463695 66.4559718,86.7721682 C66.5379263,87.3968932 66.6754679,88.0131264 66.8669729,88.613594 L66.9453355,88.7100274 L67.0819941,88.5868961 C67.1013285,87.9862662 67.0966414,87.3847611 67.1244711,86.7845689 C67.1232488,86.4443136 67.1694375,86.1055353 67.2617156,85.7779267 C67.3835167,85.5018097 67.3623007,85.1838535 67.2048844,84.9262199 C67.1197518,84.7527725 67.1155859,84.550794 67.1934947,84.3740104 C67.2714036,84.1972269 67.4234882,84.0635621 67.6092942,84.0085707 C68.5587809,83.8954615 69.5049671,84.243911 70.1521989,84.9450397 C70.3656397,85.2631101 70.5137851,85.6201019 70.5881003,85.995449 C70.6613365,86.1938596 70.7070358,86.4020449 70.7710442,86.6039569 L70.8461844,86.7009738 C70.9213247,86.6650848 71.0212188,86.632989 71.0553468,86.5687973 C71.1464636,86.4279632 71.2051389,86.2687795 71.2271588,86.1026782 C71.3805968,85.1791682 71.4858563,84.2483551 71.5425135,83.3139876 C71.5236186,83.0774997 71.7052442,82.9728964 71.9653789,82.9381745 C72.5688006,82.9446434 73.1557433,83.1351178 73.6471732,83.4839497 C73.8761094,83.9277476 74.2884287,84.2364512 74.3831963,84.7991496 C74.521051,85.4211652 74.593215,86.0558355 74.5985105,86.692804 C74.577565,87.2069209 74.6086171,87.7230804 74.5966063,88.2377809 C74.6693167,88.8774401 74.6281119,89.5248613 74.4748879,90.1502551 C74.2551795,90.7164549 74.4433964,91.3404271 74.152649,91.9053139 C73.9820088,92.2363387 74.2049396,92.4904793 74.5851815,92.4904793 C75.4448839,92.5584562 76.3092712,92.5401277 77.1652902,92.4357705 C78.6090518,92.2156039 80.0720825,92.1475353 81.5301632,92.2326914 C82.6524335,92.2357551 83.7382323,91.9409111 84.8550832,91.9575426 C85.0346276,91.9648222 85.1905941,91.8356293 85.2161373,91.6584677 C85.3722767,90.9984606 85.5823179,90.3476445 85.6863132,89.6799052 C85.829856,88.7558369 85.9007486,87.8203891 85.9922937,86.8887345 C85.9930792,86.2488815 86.0599292,85.6108054 86.1917889,84.984576 C86.2848905,84.4349917 86.3107607,83.8761927 86.2688333,83.3204068 C86.2187599,82.7648394 86.2847907,82.2049641 86.4627626,81.6760787 C86.5332517,81.4276311 86.5498288,81.167083 86.5113914,80.9117601 C86.5558603,79.8495955 86.7380194,78.7976149 87.0533387,77.7819783 C87.1604099,77.339931 87.3304642,77.3079811 87.7558196,77.5931964 C88.0780585,77.8091138 88.1849833,77.7989015 88.3124141,77.4389905 C88.3903374,77.2186963 88.4613764,77.0376466 88.7206323,77.0264131 C88.9798882,77.0151795 89.2392905,77.0379384 89.4954705,77.0132829 C90.1102235,76.9273808 90.7059439,77.2647024 90.9462781,77.8347905 C91.2011948,78.2195324 91.3735347,78.6525938 91.4524862,79.1068069 C91.5602571,79.690555 91.6384745,80.2793338 91.6868418,80.8709108 C91.7080341,81.0938328 91.870547,81.2780001 92.0897869,81.3275471 C92.2913327,81.3891127 92.5170465,81.3682504 92.7240118,81.4174154 C93.2068813,81.4943139 93.5897799,81.8640279 93.6819403,82.3423591 C93.8085702,83.0975297 94.0516557,83.8286615 94.4025837,84.5098494 L94.4723045,84.7463373 C94.2777894,85.1268189 94.5610667,85.4833745 94.5106802,85.8537896 C94.4876841,86.0228763 94.5386564,86.2233294 94.4645415,86.3603203 C94.2897649,86.7998991 94.2238492,87.2749382 94.2723699,87.7452557 C94.2594608,88.1708201 94.202673,88.5939363 94.1029015,89.0079351 C94.0214064,89.5122932 94.0135129,90.0257345 94.0794659,90.5323415 C94.1245253,90.8247354 94.1869836,91.1142051 94.266511,91.3992209 C94.2883404,91.5758797 94.4448608,91.704824 94.6231709,91.6930437 C94.9671854,91.7116204 95.3116393,91.7208601 95.6565326,91.7207628 C97.7255996,91.7207628 99.7946666,91.7133224 101.863734,91.7163861 C102.334069,91.695479 102.804695,91.7507108 103.257271,91.879929 C103.720163,91.9810319 104.196966,92.0028385 104.667212,91.9444124 C105.186356,91.8585338 105.712471,92.0518608 106.051229,92.4529856 C106.175144,92.6124435 106.412869,92.6802825 106.559194,92.8285069 C106.621977,92.9301175 106.628491,93.0565775 106.576478,93.1640543 C106.398329,93.5170662 106.035731,93.7400243 105.639056,93.7404663 C105.25193,93.7226677 104.862753,93.734193 104.47548,93.7429465 C104.046935,93.7197897 103.617847,93.7773019 103.210692,93.9124708 C102.878519,93.9963939 102.534798,94.0256176 102.19315,93.9989837 C101.891856,94.0110926 101.589538,93.9989837 101.287951,94.007883 C100.986365,94.0167823 100.687415,94.0271405 100.389197,94.060987 C100.105774,94.0932288 99.8276228,94.1741978 99.5439061,94.2020628 C99.2026258,94.2356176 98.8579766,94.2446628 98.5147921,94.2484559 C97.3509236,94.2614401 96.1869086,94.2792387 95.0230402,94.2694641 C94.6362674,94.2647494 94.2561092,94.3695807 93.9268419,94.5717485 L93.8544846,94.6716833 L93.9480803,94.7446284 C94.6119829,94.8950744 95.2857997,94.9982365 95.9644173,95.053332 C97.3412564,95.0051882 98.7226362,95.0434114 100.101819,95.0658785 C100.658499,95.0233645 101.218207,95.0872438 101.750803,95.2540768 C102.128321,95.3465382 102.520902,95.3606416 102.904126,95.2955097 C103.378858,95.2728365 103.849487,95.3926817 104.255039,95.6395187 C104.733564,95.91671 105.214433,96.1927342 105.672891,96.5002707 C105.842506,96.6143568 106.08814,96.8496776 106.059138,96.9742678 C105.957147,97.2051599 105.951875,97.4670433 106.044491,97.7018221 C105.948259,97.7525919 105.852612,97.8462534 105.755794,97.8477123 C104.721261,97.8609883 103.686727,97.8582164 102.652194,97.8631766 C102.221272,97.8652191 101.789765,97.8631766 101.360162,97.8895828 C101.241874,97.9019289 101.136617,97.9697975 101.076885,98.0722373 C101.068337,98.1887728 101.121269,98.3013458 101.216619,98.3694155 C101.79577,98.6385829 102.384735,98.8877633 102.975165,99.1319835 C103.165579,99.21091 103.470827,99.157806 103.526047,99.3842276 C103.611932,99.6716751 103.611932,99.9778108 103.526047,100.265258 C103.407909,100.64828 103.064716,100.918957 102.663326,100.94569 C102.276971,100.976733 101.888579,100.972631 101.502972,100.933435 C101.249575,100.894483 101.038948,100.735754 100.893208,101.093914 C100.864793,101.163504 100.662661,101.185971 100.539331,101.190056 C99.979661,101.207563 99.4183794,101.206833 98.8582695,101.223465 C98.3889638,101.225111 97.9214306,101.280921 97.4650255,101.38978 C96.8720706,101.496307 96.2676478,101.524903 95.6672251,101.474834 C94.8948175,101.452191 94.1230089,101.536843 93.3740556,101.726348 C92.9492861,101.840726 92.7735194,102.006895 92.7335325,102.412032 L92.7064351,102.926441 C92.7309505,103.482215 92.6658223,104.038309 92.5135311,104.573541 C92.4447441,104.909353 92.4238858,105.253154 92.4515734,105.594772 C92.4622901,105.980035 92.4095446,106.364444 92.295434,106.732715 C92.2187083,107.020243 92.1876707,107.317965 92.2034494,107.615059 C92.2649744,108.425679 92.1862483,109.240801 91.970705,110.024873 C91.9266069,110.235246 91.9269061,110.452453 91.9715838,110.662705 C91.9656795,110.749401 91.996267,110.834634 92.0560093,110.897958 C92.1157516,110.961282 92.1992585,110.996985 92.2864992,110.996502 C92.9685867,111.087657 93.6619726,111.045536 94.3278829,110.872495 L94.5710268,110.830333 C94.9518546,111.130721 95.3047063,110.811513 95.6685434,110.804072 C96.7027839,110.782481 97.7376103,110.794735 98.7721438,110.793714 C99.359937,111.089288 100.004268,110.881248 100.620184,110.995043 C101.218447,111.079388 101.824663,111.092513 102.426041,111.034141 C103.198323,111.017169 103.962125,111.197266 104.644802,111.557303 C105.086046,111.822652 105.566287,112.01754 106.068073,112.134883 C106.796479,112.229274 107.253619,112.78103 107.815633,113.150132 C107.959523,113.30997 108.024152,113.525501 107.991838,113.737756 C107.959524,113.950011 107.83365,114.136769 107.648655,114.246935 C107.223739,114.447265 106.765689,114.568689 106.297009,114.605241 C105.909296,114.586643 105.520783,114.59288 105.133873,114.623915 C104.244201,114.712762 103.357165,114.828161 102.470568,114.944873 C102.416227,114.952022 102.349875,115.061585 102.336692,115.13278 C102.320147,115.212635 102.340531,115.295668 102.392205,115.358909 C102.658109,115.570993 102.948586,115.750552 103.257417,115.893743 C103.885059,116.076242 104.386417,116.548035 104.604962,117.16182 C104.644016,117.335903 104.803754,117.45631 104.982567,117.446452 C105.586179,117.410125 105.905342,117.836562 106.258194,118.206394 C106.307125,118.269115 106.329137,118.348579 106.319419,118.427417 C106.260423,118.86619 105.899666,119.203074 105.456258,119.233461 C104.299128,119.243235 103.178615,119.596289 102.006837,119.540559 C101.520403,119.517509 101.027231,119.79966 100.499198,119.76844 C100.026825,119.740429 99.5506438,119.755456 99.077099,119.773546 C98.5196147,119.725408 97.9582067,119.795007 97.4295792,119.977792 C97.1364663,120.046506 96.8335828,120.063883 96.5344873,120.029146 C95.8505684,120.028233 95.1680951,120.091735 94.4961795,120.218803 C93.8138889,120.31318 93.1237654,120.338597 92.4363403,120.294666 C92.0350063,120.307796 91.9279351,120.436471 91.9267633,120.856343 C91.937238,120.984672 91.938315,121.113591 91.9299857,121.242076 C91.8659773,121.660489 92.144714,122.037032 92.0074695,122.489292 C91.9385576,122.910028 91.914793,123.336875 91.936577,123.762621 C91.910149,123.971076 91.8688864,124.177398 91.8131008,124.380028 C91.695923,124.91632 91.5613151,125.449695 91.466694,125.989926 C91.4529006,126.158185 91.4880376,126.32684 91.5679063,126.47574 C91.7420891,126.828275 91.7556418,127.238395 91.6051103,127.601575 C91.2280907,128.473123 91.2812601,129.439791 90.9339744,130.314111 C90.8742168,130.521578 90.8613114,130.739649 90.8961846,130.952672 C90.9590743,131.508812 90.8464423,132.070652 90.5739456,132.56009 C90.4229789,132.822094 90.3560759,133.123819 90.3822135,133.424781 C90.3626941,133.983597 90.1785502,134.524346 89.8527163,134.979678 C89.7885129,135.086258 89.6968168,135.173761 89.5871621,135.23309 C89.0271987,135.554048 88.7203393,136.198153 88.0746897,136.407943 C87.7744314,136.816153 87.5060866,137.246725 87.2720217,137.695862 C87.1879298,138.00685 86.9756575,138.267881 86.687701,138.414401 C86.3997445,138.56092 86.0629908,138.579247 85.7607211,138.464849 C85.2457247,138.307433 84.6716999,138.310789 84.2513246,137.858237 C84.0963191,137.730682 83.9805284,137.562212 83.9172214,137.372131 C83.7274372,136.584928 83.6467143,135.775556 83.6772998,134.966548 C83.7030789,133.592992 83.6900429,132.218707 83.6978059,130.844713 C83.6641698,130.459677 83.7125351,130.071905 83.8397376,129.70677 C83.9282564,129.509553 83.9413319,129.286907 83.8765021,129.080755 C83.6997308,128.418816 83.6328865,127.732528 83.6786181,127.049089 C83.7361168,126.198203 83.6797682,125.343481 83.5110538,124.50739 C83.4773652,124.412124 83.6474195,124.237785 83.6080185,124.153169 C83.3786429,123.66006 83.8469147,123.161116 83.5683245,122.673843 C83.2953002,122.19649 83.5016796,121.658155 83.4006138,121.155855 C83.3534497,120.921118 83.2298271,120.765745 82.969253,120.793464 C82.251539,120.869473 81.5484722,120.655744 80.8180151,120.772602 C80.1311059,120.828701 79.4413764,120.842538 78.7527564,120.814035 C78.5462305,120.821037 78.3426341,120.956715 78.1375729,120.959925 C77.9298428,120.933015 77.7247788,120.888603 77.5245866,120.827165 C77.3967917,120.802646 77.2652854,120.804732 77.1383393,120.833292 C75.6970395,121.071821 74.233883,121.152735 72.774931,121.074595 C72.3895617,121.06372 72.0049448,121.114653 71.6358163,121.225445 C71.3020315,121.302309 70.9596751,121.335899 70.6172483,121.32538 C70.4464961,121.333848 70.2764754,121.353341 70.1082573,121.383736 C69.8108024,121.485929 69.642146,121.798656 69.7208382,122.102099 C69.8096003,122.341942 69.9245811,122.572011 70.0234498,122.808207 C70.0717857,122.923752 70.1791498,123.077083 70.1406276,123.156301 C69.8069638,123.845632 70.0755939,124.603678 69.8678963,125.300887 C69.848269,125.366975 69.7473496,125.408992 69.6842201,125.461366 C69.6417431,125.40301 69.7105851,125.198764 69.518267,125.334733 L69.708388,125.438461 Z M82.3695241,102.925006 L82.3695241,102.966706 C81.8016481,102.897254 81.2268603,102.907351 80.6617741,102.996706 C79.9347575,103.155195 79.1913228,103.225701 78.4474741,103.206706 C78.1847254,103.179713 77.9193063,103.197208 77.6623741,103.258456 C77.0275741,103.547206 76.3404241,103.339606 75.7185241,103.510456 C75.0349717,103.661156 74.3373814,103.73904 73.6374241,103.742806 C73.4617741,103.753456 73.2847741,103.739656 73.1091241,103.750606 C72.7399746,103.718767 72.4138985,103.989806 72.3777241,104.358556 C72.2249136,104.814949 72.1313483,105.289077 72.0993241,105.769306 C72.0894241,106.285606 71.9164741,106.796506 71.8647241,107.314306 C71.828083,107.791716 71.7586188,108.266037 71.6568241,108.733906 C71.5133319,109.371507 71.4123099,110.017927 71.3544241,110.668906 C71.2494241,111.711106 71.0328241,112.735756 70.9372741,113.777806 C70.9129741,114.042856 71.0374741,114.074506 71.2120741,114.070156 C71.5612988,114.094898 71.9122557,114.066423 72.2529241,113.985706 C72.5874291,113.886715 72.932381,113.82726 73.2807241,113.808556 C73.6561954,113.70584 74.0388075,113.631283 74.4253741,113.585506 C75.3565741,113.627656 76.2243241,113.180506 77.1553741,113.284156 C77.2429416,113.300018 77.3332159,113.2906 77.4156241,113.257006 C77.9458991,113.040998 78.5209376,112.957886 79.0906741,113.014906 C79.2651125,113.038834 79.442694,113.023459 79.6104241,112.969906 C80.0509155,112.760768 80.5433702,112.686406 81.0259741,112.756156 C81.7687769,112.740021 82.5009835,112.576561 83.1801241,112.275256 C83.573769,112.162693 83.8283529,111.782054 83.7820741,111.375256 C83.7802741,110.450506 83.7813241,109.525606 83.7970741,108.601156 C83.7875624,108.074713 83.8168919,107.548285 83.8848241,107.026156 C84.0424154,105.819936 84.0972126,104.602506 84.0486241,103.387006 C84.0475741,103.058356 83.9104741,102.933856 83.5584241,102.927106 C83.1624241,102.919906 82.7659741,102.925006 82.3695241,102.925006 Z M46.8617807,102.838078 C47.3240589,102.862409 47.7875874,102.833268 48.2432477,102.751228 C48.6657677,102.648607 49.0991727,102.598234 49.5338404,102.601228 C50.4967489,102.583978 51.4599558,102.578578 52.4230134,102.564778 C52.683447,102.600152 52.9482358,102.58436 53.2026813,102.518278 C53.744555,102.345282 54.3136639,102.274889 54.8810935,102.310678 C55.098272,102.332616 55.317541,102.319602 55.5306427,102.272128 C56.1549196,102.070287 56.8130257,101.99588 57.466308,102.053278 C57.7713418,102.080897 58.0787769,102.061983 58.3781837,101.997178 C58.9646672,101.82465 59.5758175,101.752394 60.1861178,101.783428 C60.4030322,101.784565 60.6113292,101.698159 60.7643197,101.543578 C60.9173103,101.388997 61.0021984,101.179169 60.9999567,100.961128 C60.9800483,100.753235 60.9492165,100.546547 60.9075903,100.341928 C60.8843122,100.095478 60.5579708,100.189978 60.3633896,100.188928 C59.797275,100.126934 59.2252504,100.146634 58.6646836,100.247428 C57.5484059,100.444594 56.412375,100.504183 55.2817458,100.424878 C55.0785099,100.436128 54.9127279,100.291228 54.6683076,100.333528 C53.2544602,100.578478 51.810769,100.371478 50.3833427,100.666528 C49.4740215,100.689337 48.568213,100.788887 47.6754704,100.964128 C46.597407,101.045772 45.5305526,101.238636 44.4917396,101.539678 C43.9629383,101.563109 43.465643,101.799007 43.1114664,102.194428 C43.0541557,102.258733 43.0155876,102.337674 43,102.422578 C43,102.467578 43.1086312,102.547678 43.1720492,102.551578 C43.6524808,102.525144 44.1343439,102.553931 44.6082794,102.637378 C45.3475871,102.80238 46.1051304,102.869848 46.8617807,102.838078 Z M72.802652,99.946084 C72.782252,100.181284 72.918902,100.392034 73.065602,100.394134 C73.4126949,100.449227 73.766917,100.440688 74.110952,100.368934 C74.7887027,100.186698 75.4915571,100.115774 76.192052,100.158934 C76.7179529,100.193974 77.2460685,100.17447 77.767952,100.100734 C78.6269625,99.930146 79.5025976,99.857881 80.377952,99.885334 C80.7268621,99.9027263 81.0764779,99.8706584 81.416402,99.790084 C81.7940149,99.6786527 82.1870579,99.6285158 82.580552,99.641584 C82.931852,99.625234 83.285552,99.643684 83.634902,99.608584 C83.9044709,99.5719748 84.120298,99.3668454 84.170552,99.099484 C84.2210518,98.9766824 84.2044453,98.8364971 84.1266517,98.7288933 C84.048858,98.6212894 83.9209444,98.5615751 83.788502,98.571034 C83.533502,98.597584 83.284352,98.710384 83.029802,98.721034 C82.740152,98.733934 82.413002,98.581234 82.163552,98.671084 C81.7397652,98.783771 81.3005615,98.8272811 80.862902,98.799934 C80.2048841,98.7596237 79.5444513,98.7886333 78.892502,98.886484 C78.2936613,99.0086641 77.6851944,99.0776825 77.074202,99.092734 C76.8566285,99.0715004 76.6370072,99.0900013 76.426052,99.147334 C75.9722204,99.3160645 75.4859556,99.379361 75.004052,99.332434 C74.608802,99.354034 74.208302,99.330034 73.819052,99.385534 C73.5198319,99.438728 73.2296514,99.534024 72.957152,99.668584 C72.865352,99.711034 72.834602,99.883984 72.802652,99.946084 Z M73.9324235,96.2725156 C74.3812339,96.3018666 74.8319556,96.2731798 75.2734235,96.1871656 C75.6894239,96.0544698 76.1246494,95.9921136 76.5611735,96.0026656 C77.9173235,96.0101656 79.2436235,95.6090656 80.6072735,95.7104656 C80.7366454,95.6968542 80.8639987,95.6682626 80.9867735,95.6252656 C81.2854235,95.5724656 81.5839235,95.5063156 81.8852735,95.4832156 C82.2792942,95.4489318 82.6751168,95.4401135 83.0702735,95.4568156 C83.376983,95.4442116 83.675832,95.3560512 83.9402735,95.2001656 C84.0070093,95.1628898 84.0633679,95.109522 84.1042235,95.0449156 C84.0292235,94.9429156 83.9495735,94.7941156 83.8475735,94.7734156 C83.5934894,94.7201873 83.3330315,94.7040697 83.0743235,94.7255656 C82.7743235,94.7536156 82.4575235,94.9439656 82.1893235,94.8830656 C81.5911908,94.8247928 80.9884609,94.8325395 80.3920235,94.9061656 C79.7333735,94.8985156 79.0742735,94.9222156 78.4153235,94.9336156 C78.1090248,94.9037853 77.8001054,94.9152884 77.4968735,94.9678156 C76.6028115,95.187939 75.6793369,95.2638951 74.7613235,95.1928156 C74.2400707,95.2350665 73.7274029,95.3507601 73.2385235,95.5364656 C73.1273735,95.5664656 73.0318235,95.6947156 72.9542735,95.7968656 C72.9059137,95.8663089 72.8864425,95.9518316 72.8999735,96.0353656 C72.9149735,96.1067656 72.9899735,96.2132656 73.0478735,96.2195656 C73.3522235,96.2525656 73.6594235,96.2587156 73.9324235,96.2725156 Z M94.2842,97.409653 L94.28195,97.328953 L94.17695,97.261303 C93.793015,97.2542892 93.4090168,97.2712723 93.0272,97.312153 C92.9093,97.329403 92.81885,97.534153 92.7158,97.652953 C92.8358,97.682953 92.9708,97.763953 93.07205,97.733503 C93.4235426,97.5791777 93.8008705,97.4921725 94.18445,97.477003 L94.2842,97.409653 Z" id="Shape" fill="#4A90E2" fill-rule="nonzero"></path>
                </g>
            </g>
        </g>
    </g>
</svg>