<?xml version="1.0" standalone="no"?>
<!DOCTYPE svg PUBLIC "-//W3C//DTD SVG 20010904//EN"
 "http://www.w3.org/TR/2001/REC-SVG-20010904/DTD/svg10.dtd">
<svg version="1.0" xmlns="http://www.w3.org/2000/svg"
 width="177.000000pt" height="177.000000pt" viewBox="0 0 177.000000 177.000000"
 preserveAspectRatio="xMidYMid meet">
<metadata>
Created by potrace 1.11, written by Peter Selinger 2001-2013
</metadata>
<g transform="translate(0.000000,177.000000) scale(0.100000,-0.100000)"
fill="#000000" stroke="none">
<path d="M512 1753 c-21 -18 -20 -19 119 -246 137 -225 139 -230 128 -262
l-12 -33 -361 -1 c-199 0 -367 0 -373 0 -10 -1 -13 -122 -13 -571 0 -449 3
-570 13 -571 6 -1 31 -1 55 0 42 2 45 -1 45 -41 0 -13 8 -18 28 -18 23 0 28 5
31 28 l3 27 713 1 712 1 0 -29 c0 -25 4 -28 31 -28 17 0 28 4 24 10 -12 19 14
49 42 48 16 0 38 0 51 1 l22 1 0 570 0 570 -32 1 c-18 0 -185 0 -370 0 l-338
0 -16 30 -15 31 146 194 c81 107 148 202 149 211 1 15 -29 42 -37 33 -2 -3
-70 -93 -152 -200 -101 -133 -152 -194 -164 -192 -24 5 -94 5 -110 1 -10 -3
-59 69 -150 218 -75 122 -139 224 -142 227 -3 4 -16 -1 -27 -11z m409 -494
c10 -5 23 -18 29 -29 10 -19 7 -20 -65 -18 -41 1 -75 5 -75 9 0 14 47 44 70
46 13 1 31 -2 41 -8z m790 -124 c1 -22 0 -905 0 -970 l-1 -41 -826 1 -827 0 1
485 c0 267 1 499 1 515 l1 30 825 0 c818 0 825 0 826 -20z"/>
<path d="M191 1082 c-19 -9 -44 -30 -55 -45 -20 -28 -21 -40 -21 -397 0 -357
1 -369 21 -397 47 -64 36 -63 604 -63 568 0 557 -1 604 63 20 28 21 40 21 397
0 357 -1 369 -21 397 -47 64 -36 63 -604 63 -471 0 -518 -2 -549 -18z m1066
-47 c53 -13 55 -27 55 -394 0 -350 -2 -370 -42 -391 -27 -15 -1033 -15 -1060
0 -11 6 -24 19 -30 29 -9 17 -13 255 -11 582 1 150 10 169 82 178 54 7 975 4
1006 -4z"/>
<path d="M869 983 c-3 -39 -9 -89 -14 -110 -5 -20 -12 -23 -50 -23 -25 0 -48
0 -52 0 -4 0 -8 18 -8 39 0 22 -3 43 -7 46 -9 10 -29 -4 -23 -16 4 -5 1 -9 -4
-9 -6 0 -11 5 -11 10 0 6 -7 10 -15 10 -8 0 -15 -7 -15 -16 0 -14 -2 -14 -16
1 -21 20 -24 17 -30 -36 -3 -24 -7 -45 -8 -46 -1 -2 -25 -8 -52 -13 -43 -9
-65 -14 -84 -20 -3 -1 4 -5 15 -9 16 -6 10 -9 -27 -15 -32 -5 -45 -11 -44 -21
4 -26 16 -29 99 -30 l82 -1 -1 -37 c-3 -74 -4 -77 -24 -77 -10 0 -43 -5 -71
-11 -48 -11 -51 -13 -34 -25 18 -14 18 -14 -2 -14 -12 0 -25 -5 -29 -11 -5 -9
13 -10 69 -5 l76 6 -3 -86 c-4 -95 5 -110 52 -83 25 14 62 107 62 157 0 21 4
22 68 22 l68 0 -1 -71 c0 -38 3 -80 8 -91 7 -20 8 -20 28 -2 30 27 36 42 44
104 4 30 10 58 13 62 4 4 35 8 70 10 34 2 62 5 62 7 0 2 -7 13 -17 23 -10 11
-12 18 -5 19 26 3 31 4 38 11 12 13 -45 28 -103 28 l-55 0 6 42 c8 56 4 53 82
57 19 1 25 5 20 16 -4 10 1 15 16 15 40 0 0 27 -44 28 -63 3 -59 12 5 12 56 0
82 19 30 21 -16 1 -41 2 -58 3 -28 1 -30 3 -31 43 0 25 -8 51 -17 61 -10 10
-17 24 -17 30 0 20 -40 14 -41 -5z m-66 -170 c-13 -2 -33 -2 -45 0 -13 2 -3 4
22 4 25 0 35 -2 23 -4z m-193 -13 c0 -5 -19 -9 -42 -9 l-43 2 40 7 c22 4 41 8
43 9 1 0 2 -3 2 -9z m198 -27 c-10 -2 -28 -2 -40 0 -13 2 -5 4 17 4 22 1 32
-1 23 -4z m-205 -14 c-4 -4 -44 -11 -88 -14 -54 -5 -77 -4 -70 3 12 12 41 17
113 18 30 1 50 -2 45 -7z m235 -63 c-1 -50 -1 -50 -80 -61 -47 -6 -47 -6 -44
22 2 15 4 38 5 50 1 23 12 27 78 31 l42 3 -1 -45z"/>
<path d="M1503 1090 c-37 -15 -65 -69 -59 -114 10 -81 97 -120 166 -74 57 39
65 108 17 163 -25 29 -86 42 -124 25z m85 -62 c16 -16 15 -63 0 -75 -30 -23
-49 -23 -73 2 -25 24 -25 43 -2 73 12 15 59 16 75 0z"/>
<path d="M1504 780 c-12 -5 -32 -23 -44 -40 -18 -25 -21 -40 -17 -72 11 -84
98 -123 167 -76 108 73 15 237 -106 188z m84 -64 c22 -28 21 -48 -2 -71 -27
-27 -58 -24 -80 7 -36 51 44 113 82 64z"/>
<path d="M1410 445 c0 -33 2 -35 35 -35 33 0 35 2 35 35 0 33 -2 35 -35 35
-33 0 -35 -2 -35 -35z"/>
<path d="M1570 445 c0 -33 2 -35 35 -35 33 0 35 2 35 35 0 33 -2 35 -35 35
-33 0 -35 -2 -35 -35z"/>
<path d="M1410 285 c0 -33 2 -35 35 -35 33 0 35 2 35 35 0 33 -2 35 -35 35
-33 0 -35 -2 -35 -35z"/>
<path d="M1570 285 c0 -33 2 -35 35 -35 33 0 35 2 35 35 0 33 -2 35 -35 35
-33 0 -35 -2 -35 -35z"/>
</g>
</svg>
